<?xml version="1.0" encoding="utf-8"?>
<!-- Generator: Adobe Illustrator 27.1.1, SVG Export Plug-In . SVG Version: 6.00 Build 0)  -->
<svg version="1.1" id="Layer_1" xmlns="http://www.w3.org/2000/svg" xmlns:xlink="http://www.w3.org/1999/xlink" x="0px" y="0px"
	 viewBox="0 0 300 80" style="enable-background:new 0 0 300 80;" xml:space="preserve">
<style type="text/css">
	.st0{fill:#ED1C24;}
</style>
<polygon class="st0" points="80.4,13 94,13 98.7,28.3 103.5,13 115,13 119.4,28.3 124.5,13 137.4,13 127.4,45.7 114.5,45.7 
	109.4,29.7 105,45.7 91.6,45.7 "/>
<path class="st0" d="M172.3,34.3h12c0,0-0.1,4.9,5.2,4.9c4.2,0,4-2.5,4-2.5s0.1-2.5-4.5-3.3C184,32.7,173,31.8,173,22.6
	c0,0-1-11.2,15.9-11.2c12,0,16,5.3,16,11.4h-11.5c-0.2-1.8-1.7-3.6-4.2-3.6c-2.5,0-3.9,0.9-3.9,2.1c0,1.5,1,2.1,8,3.1
	c8,1.7,12.6,3.7,12.6,12c0,8.3-8.7,11-16.4,11C181.6,47.3,172.3,44.7,172.3,34.3"/>
<path class="st0" d="M220.4,24.2h-12c0,0-2.5-13.2,17.6-13.2c0,0,14.9-0.9,15.7,10.7c0.8,11.6-0.8,19.5,2.6,24h-12.8
	c0,0-1.2-1.5-1.8-3c0,0-3.4,4.1-10.8,4.1c-7.4,0-11.5-4.3-11.5-9.8s3.2-9.6,13.5-11.4c4.1-0.7,7.8-1.2,8-3.5c0.2-2.3-3-2.7-3.7-2.7
	C225.1,19.3,220.4,19,220.4,24.2 M221.7,33.4c-2.8,1.2-1.4,3.4-1.4,3.4s1.4,2.3,4.8,1.5c4.9-1.3,4.5-7.7,4.5-7.7
	S224.5,32.2,221.7,33.4"/>
<rect x="284.3" y="0.5" class="st0" width="13.2" height="9.2"/>
<rect x="284.3" y="13" class="st0" width="13.2" height="32.7"/>
<polygon class="st0" points="258.6,45.7 245.4,45.7 245.4,0.4 258.6,0.4 258.6,20.8 265.3,13 280.8,13 269.3,25.2 282.7,45.7 
	267.5,45.7 260.3,34.7 258.6,36.5 "/>
<polygon class="st0" points="2.3,0.4 16,0.4 16,14.2 29.8,0.4 47,0.4 29.4,18.5 48.3,45.7 30.4,45.7 19.6,28.6 16,32.3 16,45.7 
	2.3,45.7 "/>
<path class="st0" d="M59.6,24.2h-12c0,0-2.5-13.2,17.6-13.2c0,0,14.9-0.9,15.7,10.7c0.8,11.6-0.8,19.5,2.6,24H70.8
	c0,0-1.2-1.5-1.8-3c0,0-3.4,4.1-10.8,4.1s-11.5-4.3-11.5-9.8s3.2-9.6,13.5-11.4c4.1-0.7,7.8-1.2,8-3.5c0.2-2.3-3-2.7-3.7-2.7
	C64.4,19.3,59.7,19,59.6,24.2 M60.9,33.4c-2.8,1.2-1.4,3.4-1.4,3.4s1.4,2.3,4.8,1.5c4.9-1.3,4.5-7.7,4.5-7.7S63.8,32.2,60.9,33.4"/>
<path class="st0" d="M148.9,24.2h-12c0,0-2.5-13.2,17.6-13.2c0,0,14.9-0.9,15.7,10.7c0.8,11.6-0.8,19.5,2.6,24H160
	c0,0-1.2-1.5-1.8-3c0,0-3.4,4.1-10.8,4.1c-7.4,0-11.5-4.3-11.5-9.8s3.2-9.6,13.5-11.4c4.1-0.7,7.8-1.2,8-3.5
	c0.2-2.3-2.9-2.7-3.7-2.7C153.6,19.3,148.9,19,148.9,24.2 M150.2,33.4c-2.8,1.2-1.4,3.4-1.4,3.4s1.4,2.3,4.8,1.5
	c4.9-1.3,4.5-7.7,4.5-7.7S153,32.2,150.2,33.4"/>
<polygon points="16,62.5 19.4,62.5 19.4,76.4 27.3,76.4 27.3,79.2 16,79.2 "/>
<path d="M28.8,73.2c0-3.6,2.4-6.3,5.9-6.3c3.9,0,5.9,3,5.9,7.2H32c0.2,1.9,1.3,3,3.1,3c1.2,0,2-0.6,2.3-1.5h3.1
	c-0.4,2.1-2.3,3.9-5.4,3.9C31.1,79.6,28.8,76.8,28.8,73.2 M32,71.9h5.3c-0.1-1.5-1.1-2.6-2.6-2.6C33.1,69.3,32.3,70.3,32,71.9"/>
<path d="M42.6,67.2h1.7v-3.7h3.1v3.7h2.1v2.1h-2.1v6.4c0,0.9,0.5,1.2,1.2,1.2c0.4,0,0.9,0,0.9,0v2.3c0,0-0.7,0-2,0
	c-1.5,0-3.3-0.6-3.3-2.9v-7.1h-1.7V67.2z"/>
<path d="M58.2,67.2h1.7v-3.7h3.1v3.7H65v2.1h-2.1v6.4c0,0.9,0.5,1.2,1.2,1.2c0.4,0,0.9,0,0.9,0v2.3c0,0-0.7,0-2,0
	c-1.5,0-3.3-0.6-3.3-2.9v-7.1h-1.7V67.2z"/>
<path d="M71.5,68.8L71.5,68.8c0.9-1.3,1.9-1.9,3.6-1.9c2.5,0,4.1,1.9,4.1,4.5v7.8H76v-7.4c0-1.3-0.8-2.2-2.1-2.2
	c-1.4,0-2.4,1.1-2.4,2.8v6.8h-3.2V62.5h3.2V68.8z"/>
<path d="M81.7,73.2c0-3.6,2.4-6.3,5.9-6.3c3.9,0,5.9,3,5.9,7.2h-8.7c0.2,1.9,1.3,3,3.1,3c1.2,0,2-0.6,2.3-1.5h3.1
	c-0.4,2.1-2.3,3.9-5.4,3.9C83.9,79.6,81.7,76.8,81.7,73.2 M84.9,71.9h5.3c-0.1-1.5-1.1-2.6-2.6-2.6C86,69.3,85.1,70.3,84.9,71.9"/>
<path d="M113.8,77L113.8,77c-1.2,1.9-2.8,2.6-4.8,2.6c-2.5,0-4.5-0.9-5.9-2.4c-1.4-1.5-2.2-3.7-2.2-6.2c0-2.8,1-5.2,2.7-6.8
	c1.4-1.2,3.1-1.9,5.4-1.9c4.2,0,6.6,2.3,7.2,5.6h-3.3c-0.4-1.6-1.6-2.8-3.8-2.8c-3.2,0-4.7,2.6-4.7,5.9c0,3.4,1.8,5.9,4.7,5.9
	c2.6,0,4.3-1.9,4.3-3.8v-0.1h-4v-2.6h7.1v8.9h-2.6L113.8,77z"/>
<path d="M119,73.2c0-3.6,2.6-6.3,6.3-6.3c3.7,0,6.3,2.8,6.3,6.3c0,3.6-2.6,6.3-6.3,6.3C121.5,79.6,119,76.8,119,73.2 M128.3,73.2
	c0-2.3-1.1-3.9-3-3.9c-2,0-3,1.6-3,3.9c0,2.3,1.1,3.9,3,3.9C127.2,77.1,128.3,75.6,128.3,73.2"/>
<path d="M133.5,73.2c0-3.6,2.6-6.3,6.3-6.3s6.3,2.8,6.3,6.3c0,3.6-2.6,6.3-6.3,6.3S133.5,76.8,133.5,73.2 M142.8,73.2
	c0-2.3-1.1-3.9-3-3.9c-2,0-3,1.6-3,3.9c0,2.3,1.1,3.9,3,3.9C141.7,77.1,142.8,75.6,142.8,73.2"/>
<path d="M148.1,73.2c0-3.7,2.1-6.3,5.1-6.3c1.7,0,2.7,0.8,3.4,1.8h0.1v-6.2h3.2v16.8h-3.1v-1.6h0c-0.7,1.1-1.9,1.9-3.6,1.9
	C150.2,79.6,148.1,77.1,148.1,73.2 M156.8,73.3c0-2.3-0.8-3.8-2.8-3.8c-1.8,0-2.7,1.5-2.7,3.8c0,2.3,0.9,3.7,2.6,3.7
	C155.8,76.9,156.8,75.5,156.8,73.3"/>
<polygon points="167.2,62.5 180.6,62.5 180.6,65.3 175.6,65.3 175.6,79.2 172.2,79.2 172.2,65.3 167.2,65.3 "/>
<path d="M183,62.5h3.2v2.9H183V62.5z M183,67.2h3.2v12H183V67.2z"/>
<path d="M189.9,67.2h3.1v1.6h0.1c0.7-1.1,1.8-1.9,3.5-1.9c1.5,0,2.7,0.8,3.3,2.1h0c0.8-1.3,2.1-2.1,3.6-2.1c2.5,0,4,1.6,4,4.3v8.1
	h-3.2v-7.5c0-1.4-0.7-2.1-1.9-2.1c-1.3,0-2.2,1-2.2,2.6v7h-3.2v-7.5c0-1.4-0.7-2.1-1.9-2.1c-1.3,0-2.2,1-2.2,2.6v7h-3.2V67.2z"/>
<path d="M210,73.2c0-3.6,2.4-6.3,5.9-6.3c3.9,0,5.9,3,5.9,7.2h-8.7c0.2,1.9,1.3,3,3.1,3c1.2,0,2-0.6,2.3-1.5h3.1
	c-0.4,2.1-2.3,3.9-5.4,3.9C212.3,79.6,210,76.8,210,73.2 M213.2,71.9h5.3c-0.1-1.5-1.1-2.6-2.6-2.6
	C214.3,69.3,213.5,70.3,213.2,71.9"/>
<path d="M224.1,75.3h3c0.2,1.4,1.2,2,2.6,2c1.4,0,2.2-0.5,2.2-1.4c0-1.2-1.5-1.3-3.2-1.6c-2.2-0.4-4.3-1-4.3-3.6
	c0-2.6,2.2-3.8,4.9-3.8c3.2,0,4.9,1.6,5.2,4h-2.9c-0.1-1.3-1-1.8-2.3-1.8c-1.2,0-2.1,0.5-2.1,1.3c0,1,1.6,1.1,3.3,1.5
	c2,0.4,4.2,1,4.2,3.8c0,2.4-2.1,3.9-5.1,3.9C226.2,79.6,224.3,77.9,224.1,75.3"/>
<path d="M249.5,72.7h-2.8v6.5h-3.5V62.5h7.4c1.9,0,3.4,0.6,4.4,1.6c0.9,1,1.5,2.1,1.5,3.6c0,2.3-1.2,4-3.3,4.7l4.2,6.9h-3.9
	L249.5,72.7z M246.7,70h3.5c1.8,0,2.7-0.8,2.7-2.3c0-1.5-1-2.3-2.7-2.3h-3.6V70z"/>
<path d="M258.7,73.2c0-3.6,2.6-6.3,6.3-6.3c3.7,0,6.3,2.8,6.3,6.3c0,3.6-2.6,6.3-6.3,6.3C261.2,79.6,258.7,76.8,258.7,73.2
	 M268,73.2c0-2.3-1.1-3.9-3-3.9c-2,0-3,1.6-3,3.9c0,2.3,1.1,3.9,3,3.9C266.9,77.1,268,75.6,268,73.2"/>
<rect x="274.2" y="62.5" width="3.2" height="16.8"/>
<rect x="281.1" y="62.5" width="3.2" height="16.8"/>
</svg>
